<svg width="164" height="35" viewBox="0 0 164 35" fill="none" xmlns="http://www.w3.org/2000/svg">
<path d="M0.362638 17.5264C0.924238 14.2816 2.12544 11.3956 3.96624 8.8684C5.83824 6.31 8.16264 4.3288 10.9394 2.9248C13.7162 1.4896 16.727 0.771996 19.9718 0.771996C23.903 0.771996 27.0542 1.7236 29.4254 3.6268C31.8278 5.53 33.1382 8.1664 33.3566 11.536H24.5582C24.1526 10.444 23.435 9.6172 22.4054 9.0556C21.407 8.4628 20.1746 8.1664 18.7082 8.1664C16.1186 8.1664 13.8878 9.0244 12.0158 10.7404C10.175 12.4252 9.00504 14.6872 8.50584 17.5264C8.34984 18.4624 8.27184 19.2736 8.27184 19.96C8.27184 22.2688 8.94264 24.0472 10.2842 25.2952C11.6258 26.5432 13.529 27.1672 15.9938 27.1672C17.9906 27.1672 19.7534 26.668 21.2822 25.6696C22.811 24.64 24.0434 23.1892 24.9794 21.3172H14.8706L15.8534 15.4672H33.263L31.9526 22.9084C31.0166 24.9052 29.675 26.7616 27.9278 28.4776C26.2118 30.1936 24.1682 31.582 21.797 32.6428C19.4258 33.7036 16.8674 34.234 14.1218 34.234C11.2826 34.234 8.78664 33.688 6.63384 32.596C4.51224 31.4728 2.87424 29.9128 1.71984 27.916C0.596638 25.9192 0.0350378 23.5948 0.0350378 20.9428C0.0350378 20.038 0.144238 18.8992 0.362638 17.5264ZM46.3539 34.3744C44.1075 34.3744 42.1107 33.922 40.3635 33.0172C38.6163 32.1124 37.2591 30.8332 36.2919 29.1796C35.3559 27.526 34.8879 25.6072 34.8879 23.4232C34.8879 20.4592 35.5899 17.7604 36.9939 15.3268C38.3979 12.8932 40.3323 10.99 42.7971 9.6172C45.2619 8.2132 48.0075 7.5112 51.0339 7.5112C53.2803 7.5112 55.2771 7.9792 57.0243 8.9152C58.8027 9.82 60.1755 11.0992 61.1427 12.7528C62.1099 14.4064 62.5935 16.3252 62.5935 18.5092C62.5935 21.5044 61.8759 24.2188 60.4407 26.6524C59.0367 29.0548 57.0867 30.9424 54.5907 32.3152C52.1259 33.688 49.3803 34.3744 46.3539 34.3744ZM47.4771 27.4948C48.7875 27.4948 49.9575 27.1048 50.9871 26.3248C52.0479 25.5136 52.8591 24.484 53.4207 23.236C54.0135 21.9568 54.3099 20.6308 54.3099 19.258C54.3099 17.698 53.8887 16.4968 53.0463 15.6544C52.2039 14.812 51.1431 14.3908 49.8639 14.3908C48.5223 14.3908 47.3367 14.7964 46.3071 15.6076C45.3087 16.3876 44.5287 17.4172 43.9671 18.6964C43.4055 19.9756 43.1247 21.3172 43.1247 22.7212C43.1247 24.25 43.5303 25.4356 44.3415 26.278C45.1527 27.0892 46.1979 27.4948 47.4771 27.4948Z" fill="#FF452B"/>
<path d="M72.2835 34.2184C70.9523 34.2184 69.7563 34.0104 68.6955 33.5944C67.6347 33.1576 66.7923 32.5336 66.1683 31.7224C65.5443 30.8904 65.2323 29.9128 65.2323 28.7896C65.2323 28.644 65.2531 28.384 65.2947 28.0096H68.8203C68.7371 28.9664 69.0179 29.7672 69.6627 30.412C70.3075 31.036 71.2331 31.348 72.4395 31.348C73.7291 31.348 74.7379 31.088 75.4659 30.568C76.1939 30.0272 76.5579 29.2576 76.5579 28.2592C76.5579 27.656 76.3707 27.1464 75.9963 26.7304C75.6427 26.2936 75.1851 25.9296 74.6235 25.6384C74.0827 25.3472 73.3235 25.004 72.3459 24.6088C71.0563 24.068 70.0267 23.5792 69.2571 23.1424C68.4875 22.7056 67.8219 22.1024 67.2603 21.3328C66.7195 20.5632 66.4491 19.596 66.4491 18.4312C66.4491 17.1416 66.7819 16.0184 67.4475 15.0616C68.1131 14.084 69.0283 13.3352 70.1931 12.8152C71.3787 12.2952 72.7099 12.0352 74.1867 12.0352C75.6635 12.0352 76.9323 12.2848 77.9931 12.784C79.0747 13.2624 79.8859 13.9488 80.4267 14.8432C80.9883 15.7168 81.2379 16.7464 81.1755 17.932H77.4315C77.5147 17.0792 77.2547 16.372 76.6515 15.8104C76.0483 15.228 75.1747 14.9368 74.0307 14.9368C72.8243 14.9368 71.8571 15.2176 71.1291 15.7792C70.4219 16.32 70.0683 17.0584 70.0683 17.9944C70.0683 18.5768 70.2451 19.0864 70.5987 19.5232C70.9731 19.9392 71.4411 20.3032 72.0027 20.6152C72.5643 20.9064 73.3235 21.26 74.2803 21.676C75.5699 22.2584 76.5995 22.7784 77.3691 23.236C78.1595 23.6936 78.8355 24.3176 79.3971 25.108C79.9587 25.8776 80.2395 26.8344 80.2395 27.9784C80.2395 29.1848 79.9067 30.2664 79.2411 31.2232C78.5755 32.1592 77.6395 32.8976 76.4331 33.4384C75.2267 33.9584 73.8435 34.2184 72.2835 34.2184ZM83.4417 25.3888C83.7537 23.6208 84.3777 22.0712 85.3137 20.74C86.2705 19.388 87.4457 18.348 88.8393 17.62C90.2537 16.892 91.7825 16.528 93.4257 16.528C95.5057 16.528 97.1385 17.0272 98.3241 18.0256C99.5097 19.0032 100.186 20.4072 100.352 22.2376H96.5145C96.3481 21.3848 95.9633 20.7192 95.3601 20.2408C94.7569 19.7624 93.9353 19.5232 92.8953 19.5232C91.4393 19.5232 90.1913 20.0432 89.1513 21.0832C88.1113 22.1024 87.4249 23.5376 87.0921 25.3888C86.9881 26.0544 86.9361 26.5952 86.9361 27.0112C86.9361 28.384 87.2793 29.4448 87.9657 30.1936C88.6521 30.9216 89.6089 31.2856 90.8361 31.2856C92.8953 31.2856 94.4137 30.3808 95.3913 28.5712H99.2289C98.4177 30.3184 97.2321 31.712 95.6721 32.752C94.1329 33.7712 92.3441 34.2808 90.3057 34.2808C88.1425 34.2808 86.4265 33.6672 85.1577 32.44C83.8889 31.192 83.2545 29.5072 83.2545 27.3856C83.2545 26.7408 83.3169 26.0752 83.4417 25.3888ZM107.859 19.8352C108.566 18.7952 109.398 17.984 110.355 17.4016C111.333 16.8192 112.414 16.528 113.6 16.528L112.945 20.2096H112.04C110.667 20.2096 109.565 20.5528 108.733 21.2392C107.901 21.9256 107.318 23.1112 106.985 24.796L105.363 34H101.806L104.833 16.8088H108.389L107.859 19.8352ZM132.376 16.8088L129.349 34H125.792L126.136 31.972C125.449 32.6792 124.617 33.2408 123.64 33.6568C122.683 34.052 121.695 34.2496 120.676 34.2496C118.866 34.2496 117.42 33.7608 116.339 32.7832C115.257 31.8056 114.716 30.4224 114.716 28.6336C114.716 28.1552 114.768 27.5832 114.872 26.9176L116.651 16.8088H120.176L118.492 26.3872C118.408 26.9696 118.367 27.3856 118.367 27.6352C118.367 28.7792 118.679 29.6528 119.303 30.256C119.948 30.8592 120.832 31.1608 121.955 31.1608C123.265 31.1608 124.378 30.776 125.293 30.0064C126.208 29.216 126.812 28.0824 127.103 26.6056L128.819 16.8088H132.376ZM157.941 16.528C159.751 16.528 161.197 17.0168 162.278 17.9944C163.36 18.972 163.901 20.3552 163.901 22.144C163.901 22.6224 163.849 23.1944 163.745 23.86L161.935 34H158.409L160.125 24.3904C160.209 23.808 160.25 23.392 160.25 23.1424C160.25 21.9984 159.928 21.1248 159.283 20.5216C158.659 19.9184 157.785 19.6168 156.662 19.6168C155.31 19.6168 154.166 20.0328 153.23 20.8648C152.315 21.676 151.733 22.8512 151.483 24.3904L149.767 34H146.241L147.957 24.3904C148.041 23.808 148.082 23.392 148.082 23.1424C148.082 21.9984 147.76 21.1248 147.115 20.5216C146.491 19.9184 145.617 19.6168 144.494 19.6168C143.142 19.6168 141.998 20.0328 141.062 20.8648C140.147 21.676 139.565 22.8512 139.315 24.3904V24.2968L137.599 34H134.042L137.069 16.8088H140.625L140.282 18.8056C140.969 18.0984 141.79 17.5472 142.747 17.152C143.725 16.736 144.733 16.528 145.773 16.528C147.146 16.528 148.321 16.8192 149.299 17.4016C150.297 17.984 150.994 18.8264 151.389 19.9288C152.076 18.8888 153.022 18.0672 154.229 17.464C155.435 16.84 156.673 16.528 157.941 16.528Z" fill="black"/>
</svg>
